<?xml version="1.0" encoding="UTF-8" standalone="no"?>
<!-- Created with Inkscape (http://www.inkscape.org/) -->

<svg
   width="667.16547mm"
   height="460.6933mm"
   viewBox="0 0 2521.5703 1741.2031"
   version="1.1"
   id="svg1"
   xml:space="preserve"
   xmlns="http://www.w3.org/2000/svg"
   xmlns:svg="http://www.w3.org/2000/svg"><defs
     id="defs1" /><g
     id="g1"
     transform="translate(684.12668,-4143.6161)"><g
       id="g2"><path
         id="path156"
         d="m 1284.4605,5665.4862 c -37.12,-31.0533 -56.16,-59.7866 -59.6,-65.24 l 130.5867,-82.4933 c 0,0 -0.1867,-0.3066 -0.56,-0.8666 0.1067,0.16 10.9867,16.16 32.7333,33.4266 27.76,22.0267 60.0267,36.08 95.92,41.8 45.6667,7.2667 92.8,-7.96 124.28,-22.0133 35.1067,-15.6667 58.64,-33.2267 58.8667,-33.3867 l 115.8,22.3733 -21.7733,100.1734 c -45.24,34.72 -117.16,69.0266 -183.8134,82.2533 -110.6,21.96 -216.2,-12.2533 -292.44,-76.0267"
         style="fill:#8b5dd0;fill-opacity:1;fill-rule:nonzero;stroke:none;stroke-width:0.133333" /><path
         id="path157"
         d="m 1473.4339,4578.6996 30.64,-15.8933 30.4666,16.24 c 3.4667,1.8533 7.56,-1.08 6.9067,-4.96 l -5.6267,-34.0534 24.8534,-23.96 c 2.8266,-2.72 1.3066,-7.52 -2.5867,-8.1066 l -34.1333,-5.16 -15.0934,-31.04 c -1.72,-3.5467 -6.7466,-3.5734 -8.5066,-0.053 l -15.4534,30.8667 -34.2,4.7733 c -3.8933,0.5334 -5.4666,5.3067 -2.68,8.0667 l 24.5867,24.24 -6.0267,34 c -0.6933,3.8667 3.36,6.84 6.8534,5.04"
         style="fill:#f2f2f2;fill-opacity:1;fill-rule:nonzero;stroke:none;stroke-width:0.133333" /><path
         id="path158"
         d="M 1409.1539,5202.3396 H -98.899394 v 157.8533 H 1409.1539 v -157.8533"
         style="fill:#f47257;fill-opacity:1;fill-rule:nonzero;stroke:none;stroke-width:0.133333" /><path
         id="path159"
         d="m 1008.0339,5761.0596 c -340.07999,-179.8134 -709.45329,-290.4933 -1088.666694,-326.2 14.0534,-164.5467 28.1067,-329.1067 42.1467,-493.6533 438.466704,41.2933 865.546704,169.2666 1258.746594,377.1733 -70.7466,147.56 -141.4933,295.12 -212.2266,442.68"
         style="fill:#31dae7;fill-opacity:1;fill-rule:nonzero;stroke:none;stroke-width:0.133333" /><path
         id="path160"
         d="m -47.206094,5344.5929 c 9.5733,-102.6133 19.1467,-205.24 28.7333,-307.8533 39.84,4.08 75.5467,-21.64 79.8934,-58.5067 365.533304,45.92 721.800004,152.6667 1055.373294,316.24 -14.84,33.7067 2.5733,75.3467 38.48,93.96 -43.4267,92.4667 -86.8667,184.9467 -130.2934,277.4267 -33.03999,-17.12 -72.14659,-2.96 -86.95999,30.7333 -292.9333,-143.64 -605.7866,-237.3733 -926.786604,-277.6933 4.3333,-36.84 -21.76,-70.5333 -58.44,-74.3067"
         style="fill:#e1dde7;fill-opacity:1;fill-rule:nonzero;stroke:none;stroke-width:0.133333" /><path
         id="path161"
         d="m 737.52721,5361.5263 c -30.6533,88.28 -125.1733,133.24 -212.8533,106.2933 -87.6267,-27.16 -143.9333,-118.68 -124.2267,-210.3333 19.6534,-91.4934 116.92,-146.32 215.5067,-115.8267 98.6267,30.3867 152.2,131.76 121.5733,219.8667"
         style="fill:#50bfa5;fill-opacity:1;fill-rule:nonzero;stroke:none;stroke-width:0.133333" /><path
         id="path162"
         d="m 523.94061,5436.7529 c 2.4533,-9.8533 4.8933,-19.7066 7.3466,-29.56 -13.2133,-4.2933 -25.72,-10.3466 -35.7466,-16.7333 -8.3467,-5.3333 -11.3867,-16.16 -6.88,-24.7733 0.1866,-0.3467 0.3733,-0.6934 0.5466,-1.04 4.9734,-9.48 17.2134,-12.5334 26.44,-6.4534 9.4134,6.1867 20.4667,11.7334 32.76,15.1734 17.92,5.0133 31.92,1.7733 35.16,-10.6267 3.0667,-11.7733 -5.0933,-22.24 -26.76,-36.6133 -31.3333,-20.6934 -51.3333,-42.28 -44.4266,-72.64 6.24,-27.4934 31.6266,-43.96 68.6,-40.72 2.4133,-9.8667 4.84,-19.72 7.2533,-29.5867 10.8667,3.0133 21.7333,6.08 32.5733,9.2 -2.32,9.12 -4.64,18.2267 -6.9733,27.3467 11.8533,3.9466 21.28,8.3733 28.9467,12.88 9.36,5.5333 12.6666,17.0666 7.5466,25.76 v 0 c -5.3066,8.9866 -17.4666,11.56 -26.9066,5.6933 -7.08,-4.4133 -16.0934,-8.8933 -27.6134,-12.1733 -21.2266,-6.0267 -30.2266,0.8666 -32.3466,9.5733 -2.5334,10.3067 7.2933,19.88 32.1066,37.6933 34.92,24.1734 45.36,46.04 37.6934,73.7867 -7.64,27.5067 -33.7067,44.7733 -70.96,40.68 -2.72,10.5467 -5.4534,21.1067 -8.1867,31.6533 -10.04,-2.8933 -20.1067,-5.7333 -30.1733,-8.52"
         style="fill:#3c8f7c;fill-opacity:1;fill-rule:nonzero;stroke:none;stroke-width:0.133333" /><path
         id="path163"
         d="m 348.52721,5254.0596 c -86.68,-20 -174.1866,-36.2933 -262.320004,-48.8133 2.04,-15.8267 4.08,-31.64 6.12,-47.4667 89.360004,12.6933 178.093404,29.2267 265.986704,49.5067 -3.2667,15.5866 -6.5333,31.1866 -9.7867,46.7733"
         style="fill:#50bfa5;fill-opacity:1;fill-rule:nonzero;stroke:none;stroke-width:0.133333" /><path
         id="path164"
         d="m 1024.3805,5494.0463 c -80.66659,-39.44 -162.73329,-75.36 -245.99989,-107.6667 5.2666,-14.9733 10.5333,-29.9467 15.8,-44.9333 84.4399,32.7733 167.6533,69.1866 249.45329,109.1866 -6.4134,14.4667 -12.84,28.9467 -19.2534,43.4134"
         style="fill:#50bfa5;fill-opacity:1;fill-rule:nonzero;stroke:none;stroke-width:0.133333" /><path
         id="path165"
         d="m 1166.9272,5196.2729 c -350.86659,73.3067 -684.97329,220.2 -984.73329,432.96 -80.9867,-139.7466 -161.986704,-279.5066 -242.973304,-419.2666 346.586604,-246 732.893304,-415.84 1138.573294,-500.6 29.72,162.3066 59.4266,324.6 89.1333,486.9066"
         style="fill:#31dae7;fill-opacity:1;fill-rule:nonzero;stroke:none;stroke-width:0.133333" /><path
         id="path166"
         d="m 156.75391,5536.2196 c -49.9067,-87.68 -99.813304,-175.3467 -149.7333041,-263.0267 31.6933001,-22.0933 43.7600001,-65.24 26.4933001,-97.3066 295.333304,-195.96 617.573304,-337.64 954.640004,-419.7334 7.76,36.24 43.73329,58.2667 80.57329,50.24 19.28,101.1334 38.5733,202.28 57.8667,303.4134 -33.9067,7.4 -54.9067,43.52 -47.1334,79.7333 -295.98659,72.0933 -578.97329,196.52 -838.30659,368.5866 -17.2533,-32.0399 -55.24,-42.2399 -84.4,-21.9066"
         style="fill:#f2f2f2;fill-opacity:1;fill-rule:nonzero;stroke:none;stroke-width:0.133333" /><path
         id="path167"
         d="m 745.42061,5050.6596 c 26.3866,89.6667 -18.4134,185.5333 -98.1067,219.8667 -79.76,34.12 -172.1333,-2.84 -208.48,-88.24 -36.2933,-85.2267 5.0533,-190.6667 94.76,-229.1334 89.68,-38.56 185.5067,7.9867 211.8267,97.5067"
         style="fill:#31dae7;fill-opacity:1;fill-rule:nonzero;stroke:none;stroke-width:0.133333" /><path
         id="path168"
         d="m 629.52721,5246.2863 c -3.6666,-9.4 -7.3333,-18.7867 -11,-28.1734 -12.1333,4.9867 -24.72,8.1334 -35.6666,9.4267 -9.1334,1.0667 -17.3734,-5.6 -18.8267,-15.32 -0.053,-0.3867 -0.12,-0.7867 -0.1733,-1.1733 -1.6,-10.7067 5.7333,-20.9067 15.9333,-21.9467 10.3733,-1.0533 21.6133,-3.68 32.6,-8.7733 16,-7.4 24.5467,-18.88 20.0533,-30.8134 -4.28,-11.2933 -16.1066,-14.4266 -40.08,-12.08 -34.6133,3.48 -61.36,-0.9733 -73.1333,-29.5066 -10.6533,-25.8267 -1.0533,-55.0534 28.0267,-75.9867 -3.68,-9.3867 -7.3734,-18.76 -11.0667,-28.1333 9.6933,-4.52 19.4133,-8.9867 29.16,-13.4 3.3467,8.72 6.68,17.44 10.0267,26.16 10.9466,-4.3867 20.36,-6.88 28.52,-8.1467 9.9866,-1.5733 18.8266,5.5067 19.8666,15.6667 v 0 c 1.08,10.52 -6.4666,20.3066 -16.6933,21.64 -7.6667,1 -16.8133,3.1733 -27.1467,7.88 -19.0133,8.7066 -21.8266,19.9066 -18.56,28.1866 3.8534,9.8 16.4267,11.16 44.6267,9.5467 39.2,-2.9867 59.0533,7.7467 68.8,34.6933 9.6267,26.7334 -0.027,57.0267 -29.8,77.4667 3.8533,10.12 7.6933,20.24 11.5333,30.3733 -9.0133,4.08 -18.0266,8.2267 -27,12.4134"
         style="fill:#f2f2f2;fill-opacity:1;fill-rule:nonzero;stroke:none;stroke-width:0.133333" /><path
         id="path169"
         d="m 398.60721,5212.5929 c -75.0933,39.2134 -148.7333,81.9067 -220.7466,128 -7.28,-13.88 -14.56,-27.7466 -21.84,-41.6266 73.0133,-46.7334 147.6933,-90.0267 223.8266,-129.7867 6.2534,14.4667 12.5067,28.9333 18.76,43.4133"
         style="fill:#50bfa5;fill-opacity:1;fill-rule:nonzero;stroke:none;stroke-width:0.133333" /><path
         id="path170"
         d="m 1030.7405,4973.5929 c -81.43999,19.9334 -161.95999,43.5734 -241.35989,70.84 -4.4267,-15.2533 -8.8534,-30.52 -13.28,-45.7733 80.5199,-27.64 162.1599,-51.6133 244.74659,-71.8267 3.3067,15.5867 6.6,31.1734 9.8933,46.76"
         style="fill:#31dae7;fill-opacity:1;fill-rule:nonzero;stroke:none;stroke-width:0.133333" /><path
         id="path171"
         d="m 1222.9139,5502.9929 c -364.89339,-22.12 -730.31999,31.44 -1077.03999,157.8533 C 98.140606,5504.0996 50.407206,5347.3663 2.6739059,5190.6329 403.55391,5044.4729 826.06061,4982.5529 1247.9672,5008.1263 c -8.3467,164.9466 -16.6933,329.9066 -25.0533,494.8666"
         style="fill:#31dae7;fill-opacity:1;fill-rule:nonzero;stroke:none;stroke-width:0.133333" /><path
         id="path172"
         d="m 142.32721,5564.0729 c -29.0533,-98.0933 -58.120004,-196.1733 -87.173304,-294.2666 36.56,-12.9867 58.586704,-51.5334 48.933304,-87.1467 338.4134,-111.32 690.8667,-162.9867 1044.11999,-153.0267 -0.7467,37.1334 29.7733,67.9867 68.1733,69.9867 -4.44,103 -8.88,205.9867 -13.32,308.9867 -35.32,-1.8267 -64.56,27.56 -65.2933,64.6666 -310.21329,-8.7333 -619.71999,36.6267 -916.89329,134.3867 -9.64,-35.5867 -44.9067,-55.52 -78.5467,-43.5867"
         style="fill:#f2f2f2;fill-opacity:1;fill-rule:nonzero;stroke:none;stroke-width:0.133333" /><path
         id="path173"
         d="m 838.98061,5250.2729 c 5.28,93.7867 -61.4667,174.6667 -148.4667,186.76 -87.0133,11.88 -169.9867,-48.3866 -186.12,-140.68 -16.1333,-92.12 49.4267,-183.2 147.32,-196.6133 97.88,-13.5467 182.04,56.9067 187.2667,150.5333"
         style="fill:#31dae7;fill-opacity:1;fill-rule:nonzero;stroke:none;stroke-width:0.133333" /><path
         id="path174"
         d="m 678.52721,5408.8596 c -1.44,-10.0667 -2.8933,-20.12 -4.3333,-30.1733 -13.1867,1.6 -26.4133,1.3066 -37.56,-0.3467 -9.2933,-1.3867 -15.92,-10.0267 -15.0933,-19.8133 0.027,-0.4 0.067,-0.7867 0.093,-1.1867 0.9067,-10.7867 10.56,-18.7067 20.9067,-17.0133 10.5333,1.7333 22.2933,2.1733 34.3733,0.16 17.5867,-2.92 28.72,-11.76 27.04,-24.5067 -1.6,-12.0667 -12.6,-18.24 -36.9067,-22.32 -35.1333,-5.8133 -60.6133,-17.2133 -65.6266,-47.9467 -4.5467,-27.8266 11.7733,-53.56 45.48,-66.12 -1.4667,-10.0533 -2.9467,-20.1066 -4.4267,-30.16 10.68,-1.8 21.3467,-3.5466 32.04,-5.24 1.28,9.3334 2.56,18.6667 3.84,27.9867 11.88,-1.3333 21.7867,-1.2533 30.1733,-0.32 10.2667,1.1333 17.3734,10.32 16.04,20.44 v 0 c -1.3733,10.4533 -11.1333,17.92 -21.5866,16.5067 -7.8267,-1.0667 -17.4,-1.4 -28.7334,0.4266 -20.88,3.3867 -26.2933,13.48 -24.9733,22.36 1.5467,10.4934 13.68,15.16 42.0133,21.08 39.56,7.4934 56.7334,23.16 60.12,51.8134 3.32,28.4266 -13.3066,55.1866 -47.5733,67.0666 1.4533,10.8134 2.9067,21.64 4.36,32.4534 -9.9067,1.56 -19.7867,3.1866 -29.6667,4.8533"
         style="fill:#f2f2f2;fill-opacity:1;fill-rule:nonzero;stroke:none;stroke-width:0.133333" /><path
         id="path175"
         d="m 457.44721,5315.0063 c -83.56,18.04 -166.52,39.8266 -248.6266,65.3333 -3.9867,-15.36 -7.9734,-30.7067 -11.96,-46.0667 83.2666,-25.8666 167.3733,-47.96 252.12,-66.2533 2.8266,15.6667 5.6533,31.32 8.4666,46.9867"
         style="fill:#50bfa5;fill-opacity:1;fill-rule:nonzero;stroke:none;stroke-width:0.133333" /><path
         id="path176"
         d="m 1139.7805,5251.3663 c -85.3866,-2.3067 -170.70659,-0.7867 -255.77329,4.5333 -0.84,-15.9333 -1.6667,-31.88 -2.5067,-47.8133 86.2667,-5.4 172.78669,-6.9467 259.35999,-4.6 -0.36,15.96 -0.72,31.92 -1.08,47.88"
         style="fill:#50bfa5;fill-opacity:1;fill-rule:nonzero;stroke:none;stroke-width:0.133333" /><path
         id="path177"
         d="m -98.899394,5202.3396 v 663.6933 H 1409.1539 V 5202.3396 H -98.899394"
         style="fill:#f36b80;fill-opacity:1;fill-rule:nonzero;stroke:none;stroke-width:0.133333" /><path
         id="path178"
         d="m 1409.1539,5696.5929 h -373.16 c -16.5467,0 -29.96,14.04 -29.96,31.3733 v 0 c 0,17.32 13.4133,31.3734 29.96,31.3734 h -48.39999 c -16.5334,0 -29.9467,14.04 -29.9467,31.36 v 0 c 0,17.3333 13.4133,31.3733 29.9467,31.3733 h 8.3866 c -16.5466,0 -29.96,14.04 -29.96,31.3733 0,4.48 0.9067,8.7334 2.52,12.5867 h 440.61339 v -169.44"
         style="fill:#e25a74;fill-opacity:1;fill-rule:nonzero;stroke:none;stroke-width:0.133333" /><path
         id="path179"
         d="M 1329.4872,5286.5529 H -43.326094 v -51.5333 H 1329.4872 v 51.5333"
         style="fill:#e25a74;fill-opacity:1;fill-rule:nonzero;stroke:none;stroke-width:0.133333" /><path
         id="path180"
         d="M 554.68721,5857.8062 H -64.832794 c -27.9866,0 -50.666596,-22.68 -50.666596,-50.6666 v -310.8667 c 0,-27.9866 22.679996,-50.6666 50.666596,-50.6666 H 554.68721 c 27.9734,0 50.6667,22.68 50.6667,50.6666 v 310.8667 c 0,27.9866 -22.6933,50.6666 -50.6667,50.6666"
         style="fill:#5c407b;fill-opacity:1;fill-rule:nonzero;stroke:none;stroke-width:0.133333" /><path
         id="path181"
         d="M 108.35391,5630.7796 H -69.152794 v -103.2 H 108.35391 v 103.2"
         style="fill:#f2f2f2;fill-opacity:1;fill-rule:nonzero;stroke:none;stroke-width:0.133333" /><path
         id="path182"
         d="m 559.71391,5520.6996 h -314.7867 v -19.2667 h 314.7867 v 19.2667"
         style="fill:#f2f2f2;fill-opacity:1;fill-rule:nonzero;stroke:none;stroke-width:0.133333" /><path
         id="path183"
         d="M 536.31391,5745.4062 H -43.006094 v -23.8 H 536.31391 v 23.8"
         style="fill:#31dae7;fill-opacity:1;fill-rule:nonzero;stroke:none;stroke-width:0.133333" /><path
         id="path184"
         d="M 536.31391,5801.4462 H -43.006094 v -23.8 H 536.31391 v 23.8"
         style="fill:#31dae7;fill-opacity:1;fill-rule:nonzero;stroke:none;stroke-width:0.133333" /><path
         id="path185"
         d="M 614.20721,5388.8996 H -25.899394 v -17.1067 H 614.20721 v 17.1067"
         style="fill:#e25a74;fill-opacity:1;fill-rule:nonzero;stroke:none;stroke-width:0.133333" /><path
         id="path186"
         d="m 1097.2739,5036.8329 c 45.2266,64.44 29.6533,153.3467 -34.8,198.5734 -64.43999,45.2266 -153.34669,29.6533 -198.57339,-34.8 -45.2266,-64.44 -29.6533,-153.3467 34.8,-198.5734 64.44,-45.2266 153.34669,-29.6533 198.57339,34.8"
         style="fill:#e1dde7;fill-opacity:1;fill-rule:nonzero;stroke:none;stroke-width:0.133333" /><path
         id="path187"
         d="m 1078.5005,5050.0063 c 37.9467,54.0666 24.88,128.68 -29.2,166.6266 -54.06659,37.9467 -128.67999,24.88 -166.62659,-29.2 -37.9467,-54.0666 -24.88,-128.68 29.2,-166.6266 54.0666,-37.96 128.67999,-24.88 166.62659,29.2"
         style="fill:#31dae7;fill-opacity:1;fill-rule:nonzero;stroke:none;stroke-width:0.133333" /><path
         id="path188"
         d="m 994.39391,5202.8596 -5.2134,-19.28 c -8.8133,1.9733 -17.8,2.64 -25.4666,2.24 -6.4,-0.32 -11.44,-5.5733 -11.52,-11.9733 l -0.013,-0.7734 c -0.093,-7.0666 5.8267,-12.76 12.88,-12.2933 7.1734,0.4667 15.0934,-0.013 23.0267,-2.16 11.5733,-3.12 18.27999,-9.7333 16.07999,-17.8533 -2.08,-7.7067 -9.89329,-10.8134 -26.27999,-11.8267 -23.6933,-1.44 -41.24,-7.5733 -46.5733,-27.2667 -4.8267,-17.8533 3.9733,-35.2533 24.5333,-45.3866 l -5.2133,-19.28 19.88,-5.3734 4.8266,17.8534 c 7.48,-1.6667 13.8,-2.32 19.24,-2.3334 6.65339,-0.027 12.05339,5.3467 12.14669,12 v 0 c 0.08,6.8667 -5.5333,12.4534 -12.39999,12.3067 -5.16,-0.12 -11.36,0.3467 -18.52,2.2933 -13.1867,3.56 -15.9067,10.4 -14.3733,16.08 1.8133,6.6934 10.0666,9.04 29.0666,10.8667 26.45339,1.9867 39.21339,10.52 44.14669,28.7733 4.8933,18.0667 -3.72,36.9467 -25.96,47.32 l 5.6,20.6934 -19.89329,5.3733"
         style="fill:#f2f2f2;fill-opacity:1;fill-rule:nonzero;stroke:none;stroke-width:0.133333" /><path
         id="path189"
         d="m 1231.7539,5493.0729 c 45.24,64.44 29.6533,153.3467 -34.7867,198.5733 -64.44,45.2267 -153.3467,29.6534 -198.57329,-34.8 -45.2267,-64.44 -29.6534,-153.3466 34.78659,-198.5733 64.44,-45.2266 153.3467,-29.6533 198.5734,34.8"
         style="fill:#f2f2f2;fill-opacity:1;fill-rule:nonzero;stroke:none;stroke-width:0.133333" /><path
         id="path190"
         d="m 1212.9939,5506.2463 c 37.9466,54.0666 24.88,128.6799 -29.2,166.6266 -54.08,37.96 -128.68,24.88 -166.6267,-29.2 -37.95999,-54.0667 -24.87999,-128.68 29.1867,-166.6266 54.08,-37.9467 128.68,-24.88 166.64,29.2"
         style="fill:#31dae7;fill-opacity:1;fill-rule:nonzero;stroke:none;stroke-width:0.133333" /><path
         id="path191"
         d="m 1128.8872,5659.0996 -5.2133,-19.2667 c -8.8134,1.96 -17.8,2.6267 -25.4667,2.2267 -6.4,-0.32 -11.44,-5.5734 -11.5333,-11.9734 v -0.7733 c -0.093,-7.0667 5.8266,-12.7467 12.8666,-12.2933 7.1867,0.4666 15.0934,-0.013 23.04,-2.16 11.5734,-3.1334 18.28,-9.7334 16.08,-17.8534 -2.08,-7.7066 -9.8933,-10.8133 -26.28,-11.8266 -23.6933,-1.44 -41.2533,-7.5734 -46.5733,-27.2667 -4.8267,-17.8533 3.96,-35.2533 24.52,-45.3866 l -5.2133,-19.28 19.8933,-5.3734 4.8267,17.8534 c 7.4666,-1.6667 13.8,-2.32 19.24,-2.3334 6.6533,-0.027 12.0533,5.3467 12.1333,12 v 0 c 0.093,6.8667 -5.5333,12.4534 -12.4,12.3067 -5.1467,-0.12 -11.3467,0.36 -18.5067,2.2933 -13.1866,3.56 -15.92,10.4 -14.3733,16.08 1.8,6.6933 10.0667,9.04 29.0667,10.8667 26.4533,1.9866 39.2133,10.52 44.1466,28.7866 4.88,18.0534 -3.7333,36.9334 -25.9733,47.3067 l 5.6,20.6933 -19.88,5.3734"
         style="fill:#ffffff;fill-opacity:1;fill-rule:nonzero;stroke:none;stroke-width:0.133333" /><path
         id="path192"
         d="m 980.56721,5396.4863 c 0,78.7333 -63.8133,142.56 -142.5466,142.56 -78.7334,0 -142.56,-63.8267 -142.56,-142.56 0,-78.7334 63.8266,-142.5467 142.56,-142.5467 78.7333,0 142.5466,63.8133 142.5466,142.5467"
         style="fill:#f2f2f2;fill-opacity:1;fill-rule:nonzero;stroke:none;stroke-width:0.133333" /><path
         id="path193"
         d="m 957.64721,5396.4863 c 0,66.0666 -53.56,119.6266 -119.6266,119.6266 -66.0667,0 -119.6267,-53.56 -119.6267,-119.6266 0,-66.0667 53.56,-119.6134 119.6267,-119.6134 66.0666,0 119.6266,53.5467 119.6266,119.6134"
         style="fill:#31dae7;fill-opacity:1;fill-rule:nonzero;stroke:none;stroke-width:0.133333" /><path
         id="path194"
         d="m 800.98061,5473.2996 6.8133,-18.7733 c -8.3467,-3.4534 -16.0933,-8.0667 -22.1333,-12.8 -5.0534,-3.9467 -6.16,-11.1334 -2.5467,-16.4267 l 0.4267,-0.64 c 3.9866,-5.8267 12.1066,-7.0933 17.6,-2.6667 5.6133,4.52 12.3733,8.6667 20.1066,11.4667 11.2667,4.0933 20.5467,2.5333 23.4133,-5.3733 2.72,-7.5067 -1.8799,-14.5467 -14.7199,-24.7867 -18.56,-14.7867 -29.4134,-29.8933 -22.4534,-49.0667 6.3067,-17.3866 23.4934,-26.5733 46.1467,-23.0666 l 6.8133,-18.7734 19.36,7.0267 -6.3067,17.3867 c 7.0667,2.9333 12.6267,6.04 17.0934,9.1466 5.4533,3.8 6.7866,11.3067 3.04,16.7867 v 0 c -3.88,5.68 -11.68,7.0267 -17.2267,2.96 -4.1467,-3.0667 -9.4933,-6.24 -16.4667,-8.76 -12.84,-4.6533 -18.9999,-0.6267 -20.9999,4.9067 -2.3734,6.52 3.04,13.1733 17.5466,25.5866 20.5067,16.8267 26.0533,31.1334 19.6133,48.92 -6.3866,17.5867 -24.28,28.0934 -48.4399,23.8134 l -7.3067,20.16 -19.3733,-7.0267"
         style="fill:#f2f2f2;fill-opacity:1;fill-rule:nonzero;stroke:none;stroke-width:0.133333" /><path
         id="path195"
         d="M 1329.4872,5824.7129 H 683.83391 v -346.0133 h 645.65329 v 346.0133"
         style="fill:#e25a74;fill-opacity:1;fill-rule:nonzero;stroke:none;stroke-width:0.133333" /><path
         id="path196"
         d="m 1006.0339,5727.9662 v 0 c 0,17.32 13.4133,31.3734 29.96,31.3734 h -48.39999 c -16.5334,0 -29.9467,14.04 -29.9467,31.36 v 0 c 0,17.3333 13.4133,31.3733 29.9467,31.3733 h 8.3866 c -4.28,0 -8.3466,0.9467 -12.04,2.64 h 345.54669 v -128.12 h -293.4933 c -16.5467,0 -29.96,14.04 -29.96,31.3733"
         style="fill:#e25a74;fill-opacity:1;fill-rule:nonzero;stroke:none;stroke-width:0.133333" /><path
         id="path197"
         d="m -626.71269,5855.9262 v 0 c 0,5.5867 4.2,10.1067 9.3866,10.1067 H 1723.4739 c 5.1866,0 9.4,-4.52 9.4,-10.1067 v 0 c 0,-5.5866 -4.2134,-10.12 -9.4,-10.12 H -617.32609 c -5.1866,0 -9.3866,4.5334 -9.3866,10.12"
         style="fill:#8b5dd0;fill-opacity:1;fill-rule:nonzero;stroke:none;stroke-width:0.133333" /><path
         id="path198"
         d="m 1412.9405,5884.8196 h -385.36 c -15.4666,0 -27.99999,-12.5467 -27.99999,-28 v 0 c 0,-15.4667 12.53339,-28 27.99999,-28 h 385.36 c 15.4534,0 27.9867,12.5333 27.9867,28 v 0 c 0,15.4533 -12.5333,28 -27.9867,28"
         style="fill:#31dae7;fill-opacity:1;fill-rule:nonzero;stroke:none;stroke-width:0.133333" /><path
         id="path199"
         d="m 1405.1005,5828.8196 h -385.36 c -15.4666,0 -27.99999,-12.5334 -27.99999,-28 v 0 c 0,-15.4534 12.53339,-27.9867 27.99999,-27.9867 h 385.36 c 15.4667,0 28,12.5333 28,27.9867 v 0 c 0,15.4666 -12.5333,28 -28,28"
         style="fill:#f2f2f2;fill-opacity:1;fill-rule:nonzero;stroke:none;stroke-width:0.133333" /><path
         id="path200"
         d="m 1450.3272,5772.8329 h -385.3733 c -15.4534,0 -27.9867,-12.5467 -27.9867,-28 v 0 c 0,-15.4667 12.5333,-28 27.9867,-28 h 385.3733 c 15.4533,0 27.9867,12.5333 27.9867,28 v 0 c 0,15.4533 -12.5334,28 -27.9867,28"
         style="fill:#31dae7;fill-opacity:1;fill-rule:nonzero;stroke:none;stroke-width:0.133333" /><path
         id="path201"
         d="m 960.18051,4560.4729 4.8934,33.16 -52.4934,13.7867 1.1867,49.3867 -37.6,16.7333 8.48,19.04 50.28,-22.3867 -1.12,-46.8 54.6133,-14.3333 -7.3733,-49.92 -20.8667,1.3333"
         style="fill:#f2f2f2;fill-opacity:1;fill-rule:nonzero;stroke:none;stroke-width:0.133333" /><path
         id="path202"
         d="m 463.70061,4455.4596 10.12,-25.1067 c -11.1334,-5.08 -21.4,-11.6933 -29.3734,-18.3866 -6.64,-5.5867 -7.8133,-15.3734 -2.6666,-22.3734 l 0.6266,-0.84 c 5.6667,-7.72 16.72,-9.0266 23.96,-2.7733 7.3867,6.3733 16.3334,12.32 26.68,16.4933 15.0667,6.0667 27.7067,4.4 31.9734,-6.16 4.04,-10.04 -1.8534,-19.8 -18.7467,-34.28 -24.44,-20.9066 -38.4133,-41.9066 -28.08,-67.5333 9.3733,-23.2533 33.0933,-34.8934 63.6133,-29.04 l 10.12,-25.1067 25.8934,10.4267 -9.3734,23.2667 c 9.44,4.2933 16.8134,8.76 22.72,13.1866 7.2,5.4134 8.6534,15.64 3.3067,22.8934 v 0 c -5.5067,7.5066 -16.16,8.96 -23.4667,3.1733 -5.4666,-4.3333 -12.56,-8.88 -21.88,-12.64 -17.1866,-6.92 -25.7066,-1.76 -28.6933,5.64 -3.52,8.72 3.4933,18 22.56,35.5067 26.9733,23.7733 33.8,43.4133 24.2133,67.2 -9.48,23.52 -34.2266,36.8933 -66.7466,29.9333 l -10.8534,26.96 -25.9066,-10.44"
         style="fill:#f36b80;fill-opacity:1;fill-rule:nonzero;stroke:none;stroke-width:0.133333" /><path
         id="path203"
         d="m 511.56721,4723.3663 c 2.64,4.28 1.88,9.84 -1.8133,13.2533 -7.24,6.7067 -18.7867,14.5333 -32.8533,19.8133 -20.56,7.72 -43.3867,8.4667 -63.96,-0.88 -12.8534,-5.84 -24.6134,-16.3466 -32.92,-29.9466 l -12.1467,4.56 c -4.1333,1.56 -8.7333,-0.5334 -10.28,-4.6667 l -0.12,-0.32 c -1.5467,-4.12 0.5333,-8.7333 4.6667,-10.28 l 9.9733,-3.7467 c -1.6,-3.3066 -2.7333,-5.3733 -3.4267,-7.24 -1.1733,-3.1066 -2.2666,-6.9733 -3.16,-11.2533 l -10.28,3.8533 c -4.1333,1.56 -8.7333,-0.5333 -10.2933,-4.6666 v 0 c -1.5467,-4.1334 0.5467,-8.7334 4.68,-10.28 l 12.4533,-4.68 c -1.9466,-15.6134 0.12,-30.9734 5.9467,-43.8267 9.9333,-21.8533 28.6267,-37.4 50.12,-45.4667 12.5333,-4.7066 22.84,-6.0933 31.1867,-6.1866 5.8,-0.067 10.6,4.48 10.88,10.2666 v 0.1867 c 0.28,6 -4.4,11.0267 -10.4134,11.2667 -6.8266,0.28 -14.8933,1.64 -24.24,5.1466 -13.7066,5.1467 -25.7866,14.6534 -32.72,29.3334 -3.8933,8.5733 -5.72,18.8666 -3.6533,29.1066 l 70.12,-26.32 c 4.12,-1.5466 8.7333,0.5467 10.28,4.68 v 0 c 1.5467,4.12 -0.5467,8.7334 -4.6667,10.28 l -73.2266,27.48 c 0.9733,3.5467 1.9466,7.0934 2.76,9.2667 1.0533,2.8133 2.1066,5.6133 3.8266,9.24 l 73.3734,-27.5467 c 4.2266,-1.5866 8.92,0.56 10.5066,4.7734 v 0 c 1.5734,4.2133 -0.56,8.92 -4.7733,10.4933 l -70.2667,26.3733 c 5.5734,8.2134 12.8667,14.3734 20.5734,17.88 15.3066,6.6934 29.4133,6.3734 44.9866,0.5334 9.5067,-3.5734 17.4,-8.4667 23.4,-13.2 4.9467,-3.8934 12.1734,-2.6267 15.48,2.72 v 0"
         style="fill:#31dae7;fill-opacity:1;fill-rule:nonzero;stroke:none;stroke-width:0.133333" /><path
         id="path204"
         d="m 320.15391,4473.4729 -31.8267,3.2267 -10.8533,-50.64 -47.1333,-1.0267 -14.32,-36.56 -18.5067,7.24 19.16,48.92 44.6533,0.96 11.2934,52.68 47.8933,-4.8533 -0.36,-19.9467"
         style="fill:#31dae7;fill-opacity:1;fill-rule:nonzero;stroke:none;stroke-width:0.133333" /><path
         id="path205"
         d="m 688.02061,4435.5929 34.0533,11.24 c 0,0 54,-17.5066 59.32,-28.5066 5.3067,-11 6.8133,-37.7067 14.4933,-38.44 7.68,-0.72 22.5334,1.7733 26.0667,20.0533 2.5733,13.2667 -16.8533,51.6 -13.8267,55.68 1.9067,2.56 21.2934,9.5733 35.5334,14.4667 9.3733,3.2266 16.1333,11.4666 17.5733,21.4133 v 0.027 c 0.9733,6.72 -2.8267,13.28 -9.12,15.7066 l -9.8,3.7867 3.12,10.1067 c 2.3333,7.5333 -1.8,15.6266 -9.2267,18.12 l -7.5866,2.5466 2.4266,6.16 c 3.12,7.9334 -1.28,16.9334 -9.4266,19.3067 l -6.6267,1.92 0.28,1.7733 c 1.1333,7.3734 -3.48,14.4534 -10.6267,16.32 l -6.5866,1.7334 -90.6934,-29.9334 c -8.4933,-2.8 -16.32,-7.3466 -22.9866,-13.3466 l -30.12,-15.9067 c -3.24,-1.7067 -4.7334,-5.5733 -3.5067,-9.0933 l 27.92,-80.4134 c 1.3467,-3.88 5.5067,-5.9866 9.3467,-4.72"
         style="fill:#e4c4ff;fill-opacity:1;fill-rule:nonzero;stroke:none;stroke-width:0.133333" /><path
         id="path206"
         d="m 149.30061,4795.8196 7.2133,-35.7333 33.52,-14.32 c 3.8267,-1.6267 4.12,-6.9334 0.4933,-8.9734 l -31.76,-17.9066 -3.2533,-36.3067 c -0.3733,-4.1333 -5.3333,-6.0533 -8.3867,-3.24 l -26.84,24.68 -35.546604,-8.1333 c -4.04,-0.92 -7.4,3.2 -5.6667,6.9733 l 15.1733,33.16 -18.7066,31.2933 c -2.1334,3.56 0.7466,8.0267 4.88,7.5467 l 36.213304,-4.1867 23.9733,27.4534 c 2.7334,3.1333 7.8667,1.7733 8.6934,-2.3067"
         style="fill:#f2f2f2;fill-opacity:1;fill-rule:nonzero;stroke:none;stroke-width:0.133333" /><path
         id="path207"
         d="m -288.23279,5673.6596 c 0,0 -44.68,32.2133 -51.72,41.8266 -10.1333,13.84 75.7067,39.7334 66.3334,23.52 -2.1467,-3.72 -8.3334,-16.2666 -8.6,-17.4933 -1.44,-6.6133 16.7733,-24.3867 16.7733,-24.3867 l -22.7867,-23.4666"
         style="fill:#ffb3c5;fill-opacity:1;fill-rule:nonzero;stroke:none;stroke-width:0.133333" /><path
         id="path208"
         d="m -250.39279,5766.0996 -30.3466,-42.88 c 0,0 -18.9467,-4.4 -38.3867,-26.28 0,0 -17.48,6.68 -28.24,21.1333 0,0 20.32,21.8933 51.6133,46.5333 0,0 18.56,16.4267 44.2,25.0934 25.6534,8.6666 1.16,-23.6 1.16,-23.6"
         style="fill:#31dae7;fill-opacity:1;fill-rule:nonzero;stroke:none;stroke-width:0.133333" /><path
         id="path209"
         d="m -661.68609,5086.4729 c 0,0 5.4934,4.8534 7.44,6.3334 2.28,1.7333 9.48,6.4133 9.48,6.4133 0,0 26.0934,14.84 26.9734,12.88 0.88,-1.9467 0.84,-7.5867 -0.44,-9.0667 -1.2934,-1.48 -5.0534,-3 -6.3334,-4.48 -1.2933,-1.48 -1.7333,-4.4666 -0.08,-6.12 1.6667,-1.6533 10.5734,3.2134 10.5734,3.2134 0,0 7.2266,4.0133 10.24,8.8533 10.4666,16.7867 7.2933,17.76 8.6933,19.88 1.6533,2.5067 38.2267,19.1067 38.2267,19.1067 0,0 109.3733,45.4666 115.2799,47.96 h 0.067 c 0.8,5.0666 -1.9067,9.72 -3.3067,14.2 -2.6133,15.6266 -7.2666,16.6666 -10.8133,31.7333 -16.7733,-8.4933 -132.8933,-72.4667 -144.7066,-79.12 0,0 -17.68,-3.0267 -28.7334,-5.28 -11.0533,-2.2667 -20.68,-9.2533 -23.7066,-10.36 -0.4534,-0.16 -10.3467,-4.44 -21.2134,-12.8667 -9.3733,-7.2533 2.7334,-4.52 2.7334,-4.52 0,0 19.6933,10.44 20.2,8.7867 0.3866,-1.28 -10.68,-6.36 -21.1334,-14.2933 -2.68,-2.04 -5.3333,-4.0667 -7.7466,-5.9334 -6.3334,-4.9333 -5.2267,-10.1066 2.2,-5.9733 2.6266,1.4667 6.92,3.9867 9.7466,6.2133 3.0534,2.4 6.6,3.6534 9.4667,5.2934 5.68,3.2666 9.7733,5.7066 9.7733,5.4 0,-0.3867 1.56,-0.52 -1.2266,-2.76 -3.3467,-2.7067 -11.6934,-6.9334 -16.32,-11.28 -2.6267,-2.4667 -8.4134,-7.3067 -8.4134,-7.3067 0,0 -7.44,-8.88 -7.0666,-9.4667 1.96,-3.1866 8.7066,1.5067 11.8533,5.3067 3.2133,1.44 9.1733,6.6933 9.1733,6.6933 0,0 14.3467,8.0134 15.4534,6.04 0.4666,-0.8266 -7.7734,-6.7733 -14.9734,-13.8266 -6.6933,-6.5467 -12.4,-14.2134 -11.3333,-15.68 1.8,-2.4934 9.9733,4.0266 9.9733,4.0266"
         style="fill:#ffb3c5;fill-opacity:1;fill-rule:nonzero;stroke:none;stroke-width:0.133333" /><path
         id="path210"
         d="m -356.57939,5342.5263 7.0666,34.96 177.7067,161.6266 -127.2,128.72 34.3467,35.1067 c 0,0 187.853296,-137.9467 194.626596,-156.0267 10.4267,-27.8266 -134.653296,-212.1866 -134.653296,-212.1866 l -151.8933,7.8"
         style="fill:#e25a74;fill-opacity:1;fill-rule:nonzero;stroke:none;stroke-width:0.133333" /><path
         id="path211"
         d="m -479.79279,5765.2862 c 0,0 -35.8533,39.0667 -42.8933,48.6667 -10.1333,13.8533 65.56,34.2933 56.2,18.08 -2.16,-3.7333 -8.3333,-16.28 -8.6,-17.5067 -1.44,-6.6 16.76,-24.3733 16.76,-24.3733 l -21.4667,-24.8667"
         style="fill:#ffb3c5;fill-opacity:1;fill-rule:nonzero;stroke:none;stroke-width:0.133333" /><path
         id="path212"
         d="m -426.57939,5830.7929 -49.3467,-18.04 c 0,0 -18.64,8.48 -47.08,1.5333 0,0 -10.0266,14.0934 -10.6533,32.1067 0,0 93.52,11.92 119.5466,4.4667 26.0134,-7.44 -12.4666,-20.0667 -12.4666,-20.0667"
         style="fill:#31dae7;fill-opacity:1;fill-rule:nonzero;stroke:none;stroke-width:0.133333" /><path
         id="path213"
         d="m -350.49939,5358.7263 7.9866,220.5466 -157.6799,193.32 42.6666,23.36 c 0,0 174.4133,-149.6933 193.56,-191.3867 11.88,-25.8666 51.8533,-259.6666 51.8533,-259.6666 l -138.3866,13.8267"
         style="fill:#f36b80;fill-opacity:1;fill-rule:nonzero;stroke:none;stroke-width:0.133333" /><path
         id="path214"
         d="m -207.16609,5340.6329 c -14.4533,-32.6266 -12.7733,-266.4666 -69.0267,-321.2266 -19.7866,3.3333 -33.9066,5.2133 -37.2,6.08 -2.9333,24.08 -6.1733,112.48 -8.1466,193.4933 -1.32,53.9733 0.04,110.5733 -6.6134,140.4 -4.12,18.4933 134.2,11.04 120.9867,-18.7467"
         style="fill:#f2f2f2;fill-opacity:1;fill-rule:nonzero;stroke:none;stroke-width:0.133333" /><path
         id="path215"
         d="m -359.41939,5037.5529 c -15.7867,3.6 -27.4134,6.1334 -48.1067,36.6934 -19.8133,29.2666 -63.8,98.72 -63.8,98.72 l -115.88,-51.4667 -5.4133,58.6933 c 0,0 131.08,68.1467 149.5733,62 18.5067,-6.1466 70.4933,-82.1466 74.3467,-87.28 0.9066,-1.2 -4.36,81.1734 -4.36,94.3467 0,13.16 -25.1334,127.7733 -25.1334,127.7733 0,0 63.76,15.6934 76.2134,-12.8266 38.1466,-87.4 8.8666,-338.8 8.8666,-338.8 0,0 -34.9466,9.56 -46.3066,12.1466"
         style="fill:#5c407b;fill-opacity:1;fill-rule:nonzero;stroke:none;stroke-width:0.133333" /><path
         id="path216"
         d="m -121.40609,4787.2863 c -4.8667,-4.08 -6.9867,-13.8534 -7.8,-20.1334 l -2.16,-8.3333 c 1.9733,-0.8133 40.613296,-6.3067 52.266696,-6.6133 1.1333,3.6933 1.7066,6.8133 1.3333,8.8 -1.7333,9.52 -13.8933,71.36 -13.8933,71.36 l -33.279996,0.6666 c 0,0 7.24,-36.6666 3.5333,-45.7466"
         style="fill:#ffb3c5;fill-opacity:1;fill-rule:nonzero;stroke:none;stroke-width:0.133333" /><path
         id="path217"
         d="m -263.15279,5033.0863 c 0,0 22.84,64.9733 41.6267,55.6133 18.7867,-9.36 124.359996,-116.9867 125.399996,-122.1867 1.04,-5.2 8.3467,-137.2933 8.3467,-137.2933 l -41.746696,-8.32 -24.0133,108.1733 c 0,0 -77.2534,73.8534 -92.9067,81.1334 -15.6667,7.28 -16.7067,22.88 -16.7067,22.88"
         style="fill:#5c407b;fill-opacity:1;fill-rule:nonzero;stroke:none;stroke-width:0.133333" /><path
         id="path218"
         d="m -201.51279,5356.2596 c 12.64,0 17.3067,-1.7467 25.72,-4.28 0,0 -24.0666,-135.6667 -38.0533,-270.2 -5.5333,-53.1467 -10.6667,-74.9333 -32.5867,-71.0933 -6.3466,1.1066 -23.52,7.6533 -29.76,8.7066 55.1067,155.8934 55.2934,275.88 63.0934,310.68 3.9066,17.4534 7.32,26.2934 11.5866,26.1867"
         style="fill:#5c407b;fill-opacity:1;fill-rule:nonzero;stroke:none;stroke-width:0.133333" /><path
         id="path219"
         d="m -282.00609,4995.8463 5.7733,23.56 c 0,0 1.32,20.4933 -8.2,22.3333 -11.48,2.2267 -28.5333,-14.9467 -28.5333,-14.9467 l -9.88,-66.4266 40.84,35.48"
         style="fill:#f7a491;fill-opacity:1;fill-rule:nonzero;stroke:none;stroke-width:0.133333" /><path
         id="path220"
         d="m -282.00609,4995.8463 5.7733,23.56 c 0,0 1.32,20.4933 -8.2,22.3333 -11.48,2.2267 -28.5333,-14.9467 -28.5333,-14.9467 l -9.88,-66.4266 40.84,35.48"
         style="fill:#ffb3c5;fill-opacity:1;fill-rule:nonzero;stroke:none;stroke-width:0.133333" /><path
         id="path221"
         d="m -322.75279,4960.6729 40.7467,35.1734 4.32,17.6 c -15.5733,-3.7467 -37.7867,-20.8934 -45.0667,-52.7734"
         style="fill:#ea94ad;fill-opacity:1;fill-rule:nonzero;stroke:none;stroke-width:0.133333" /><path
         id="path222"
         d="m -281.85939,4899.5663 c 9.8533,-0.04 18.72,6.8 22.1866,16.64 2.8667,8.1466 6.5467,20.2266 8.88,34.0933 4.32,25.5467 -10.2266,48.9333 -22.88,50.8 -12.6666,1.8667 -42.8133,-6.52 -49.48,-42.7067 -2.8533,-15.5066 -6.6133,-35.8533 6.1334,-46.5466 9.9333,-8.3067 23.8266,-12.2534 35.16,-12.28"
         style="fill:#ffb3c5;fill-opacity:1;fill-rule:nonzero;stroke:none;stroke-width:0.133333" /><path
         id="path223"
         d="m -319.04609,4985.9663 c 0,0 -44.6133,-39.76 -46.56,-70.8267 -1.9467,-31.0533 26.7467,-47.6933 51.28,-48.56 11.08,-0.4 18.5733,0.1067 30.0133,1.5467 24.5867,3.0933 40.5067,13.9866 34.9067,34.12 -7.5333,27.04 -58.5467,4.2266 -68.9733,12.6266 -8.6,6.92 5.3466,23.5734 -3.0134,29.9334 -7.8533,5.9733 -3.8533,3.9466 -1.2533,15.3066 2.6,11.3467 3.6,25.8534 3.6,25.8534"
         style="fill:#f36b80;fill-opacity:1;fill-rule:nonzero;stroke:none;stroke-width:0.133333" /><path
         id="path224"
         d="m -336.24609,4949.9529 c 1.1067,7.44 5.6533,12.9334 10.1733,12.2667 4.5067,-0.6667 7.2534,-7.24 6.16,-14.68 -1.1066,-7.44 -5.6666,-12.9333 -10.1733,-12.28 -4.5067,0.6667 -7.2667,7.24 -6.16,14.6933"
         style="fill:#ffb3c5;fill-opacity:1;fill-rule:nonzero;stroke:none;stroke-width:0.133333" /><path
         id="path225"
         d="m -119.13939,4758.7263 c 0,0 7.2266,4.0933 14.4133,13.6266 0,0 18.813296,-12.0666 18.146696,-15.8933 -0.8667,-5.0667 -20.106696,4.3467 -20.106696,4.3467 l -12.4533,-2.08"
         style="fill:#ea94ad;fill-opacity:1;fill-rule:nonzero;stroke:none;stroke-width:0.133333" /><path
         id="path226"
         d="m -604.29939,4508.9129 508.039996,261.5867 c 27.3333,14.08 61.8933,1.4133 77.2,-28.2933 L 110.67391,4490.2329 c 15.2933,-29.7066 5.5333,-65.2 -21.800004,-79.28 L -419.16609,4149.3662 c -27.3467,-14.08 -61.9067,-1.4133 -77.2,28.2934 l -129.7466,251.9733 c -15.2934,29.7067 -5.5334,65.2 21.8133,79.28"
         style="fill:#f36b80;fill-opacity:1;fill-rule:nonzero;stroke:none;stroke-width:0.133333" /><path
         id="path227"
         d="m -16.152794,4736.5396 -607.039896,-312.56 39.36,-76.44 607.039896,312.56 -39.36,76.44"
         style="fill:#5c407b;fill-opacity:1;fill-rule:nonzero;stroke:none;stroke-width:0.133333" /><path
         id="path228"
         d="m -333.68609,4328.5796 -133.7733,-69.0267 38.2933,-74.2133 133.7733,69.0266 -38.2933,74.2134"
         style="fill:#f2f2f2;fill-opacity:1;fill-rule:nonzero;stroke:none;stroke-width:0.133333" /><path
         id="path229"
         d="m -119.28609,4758.3263 c -0.88,-2.3867 -2.6267,-5.72 -1.7733,-7.04 5.4266,-8.2667 -0.4134,-17.2667 -4.36,-10.2267 -2.28,4.08 -6.2934,13.0933 -5.9467,17.76 0.24,3.3867 3.68,16.32 3.68,16.32 0,0 13.4133,-3.2667 8.4,-16.8133"
         style="fill:#ffb3c5;fill-opacity:1;fill-rule:nonzero;stroke:none;stroke-width:0.133333" /><path
         id="path230"
         d="m 1411.1672,5628.7796 c 0,0 -3.12,38.9466 -0.5867,51.6133 1.36,6.7733 8.92,20.72 5.4534,27.1067 -3.4667,6.3733 -7.44,7.96 -7.44,7.96 l -89.96,1.4266 c -4.8934,0.08 -1.6534,-3.0133 2.2933,-5.88 6.4667,-4.6666 11.68,-7.76 32.3467,-17.5866 1.3466,-0.64 6.2533,-3.7067 8.0133,-4.7734 4.4933,-2.6933 9,-6.9333 12.8667,-11.1866 6.4666,-7.0667 7.0266,-41.36 7.0266,-41.36 l 29.9867,-7.32"
         style="fill:#ffb3c5;fill-opacity:1;fill-rule:nonzero;stroke:none;stroke-width:0.133333" /><path
         id="path231"
         d="m 1340.8605,5111.1129 c 0,0 -38.6666,-19.0666 -31.2266,22.3867 7.44,41.4533 64.0933,507.6533 64.0933,507.6533 l 53.0533,2.9333 c 0,0 6.7734,-155.4266 5.2934,-177.7466 -1.4934,-22.32 -10.28,-56.8533 -10.28,-56.8533 l -4.5067,-137.88 -50.0533,-170.2534 -26.3734,9.76"
         style="fill:#472a6a;fill-opacity:1;fill-rule:nonzero;stroke:none;stroke-width:0.133333" /><path
         id="path232"
         d="m 1361.3005,5688.6329 c 23.8,6.0133 41.3734,1.9333 51.2134,-1.9733 2.5466,7.0666 5.9066,15.9466 4.12,21.0533 -2.1867,6.2667 -5.0267,9.0533 -7.7734,9.12 -21.7333,0.56 -79.8666,-0.04 -96.44,0.1733 -2.3066,0.027 -3.5866,-2.6266 -2.0933,-4.3866 4.1067,-4.8134 49.2,-22.92 50.9733,-23.9867"
         style="fill:#5c407b;fill-opacity:1;fill-rule:nonzero;stroke:none;stroke-width:0.133333" /><path
         id="path233"
         d="m 1309.6339,4830.9263 c 0,0 -32.6934,-62.8934 -37.76,-85.9867 -5.08,-23.0933 -22.64,-139.3733 -21.16,-146.8667 1.48,-7.4933 29.2533,-25.5066 25.8266,-31.8666 -3.4266,-6.36 -29.88,-6.3867 -35.9333,-5.84 -6.0667,0.5466 -18.2267,4.08 -23.44,8.3733 -5.2133,4.2933 5.8533,143.6533 9.16,173.6533 3.3067,30.0134 43.92,122.4 43.92,122.4 l 39.3867,-33.8666"
         style="fill:#ffb3c5;fill-opacity:1;fill-rule:nonzero;stroke:none;stroke-width:0.133333" /><path
         id="path234"
         d="m 1564.3405,5321.1529 c 0,0 26.96,-28.28 32.96,-39.7066 3.2267,-6.12 6.1334,-21.72 12.84,-24.48 6.72,-2.7734 10.8134,-1.5067 10.8134,-1.5067 l 70.7466,55.56 c 3.8534,3.04 -0.6133,3.4 -5.48,3.1333 -7.9733,-0.44 -13.9733,-1.3333 -36.2,-6.72 -1.4533,-0.3466 -7.2,-1.0533 -9.24,-1.3466 -5.1733,-0.7334 -11.3466,-0.28 -17.04,0.5733 -9.4666,1.4267 -31.5066,27.7067 -31.5066,27.7067 l -27.8934,-13.2134"
         style="fill:#ffb3c5;fill-opacity:1;fill-rule:nonzero;stroke:none;stroke-width:0.133333" /><path
         id="path235"
         d="m 1640.7672,5306.0863 c -14.6933,-19.6534 -30.92,-27.56 -41.0133,-30.7334 2.48,-7.08 5.2,-16.36 9.8,-19.2 5.6533,-3.4933 9.5333,-2.7733 11.72,-1.0933 17.2266,13.2533 62.32,49.52 75.32,59.7867 1.8133,1.44 1.1333,4.3066 -1.12,4.7333 -6.2267,1.16 -52.6534,-13.2 -54.7067,-13.4933"
         style="fill:#5c407b;fill-opacity:1;fill-rule:nonzero;stroke:none;stroke-width:0.133333" /><path
         id="path236"
         d="m 1564.9672,4811.7796 c -16.7733,-35.2133 -53.96,-54.5867 -89.9867,-45.2133 -12.92,-17.48 -32.9066,-29.72 -53.7066,-32.6667 -41.0267,-5.8133 -93.96,14.0933 -88.56,56.92 -12.96,29.9467 -9.7867,71.2267 16.1066,91.4533 -4.7466,39.3734 34.72,74.3067 81.4534,69.5867 18.7866,25.9467 51.4666,41.1733 82.04,35.24 7.3333,-1.4133 18.48,-4.0933 20.4,-3.76 -2.4,-0.2667 53.2933,36.2 91.6933,-28.7333 39.1867,-66.2667 0.6,-140.3467 -59.44,-142.8267"
         style="fill:#472a6a;fill-opacity:1;fill-rule:nonzero;stroke:none;stroke-width:0.133333" /><path
         id="path237"
         d="m 1325.2872,5126.1263 c 0,0 86.72,-38.5467 88.08,-34.16 10.8667,35.0133 44.6933,23.72 64.7733,85.4 8.4134,25.8266 17.0534,197.6133 17.0534,197.6133 0,0 34.1866,-28.3733 83.0533,-77.9467 3.7467,-3.8133 40.48,31.12 40.48,31.12 -96.9867,131.0534 -138.8267,137.88 -155.0133,130.5467 -33.7867,-15.32 -105.0667,-229.5467 -104.9467,-229.52 -8.56,-16.68 -33.48,-103.0533 -33.48,-103.0533"
         style="fill:#5c407b;fill-opacity:1;fill-rule:nonzero;stroke:none;stroke-width:0.133333" /><path
         id="path238"
         d="m 1469.0472,4884.1129 c 0,0 125.3333,-0.16 152.1733,-1.7066 24.2934,-1.4 120.6134,1.0533 124.3867,0.6133 3.76,-0.44 28.6667,-42.6 32.8,-38.08 4.1333,4.5333 -13.8533,20.9067 -8.2933,25.16 5.5733,4.2533 65.3466,-5.2667 64.56,-0.84 -1.4934,8.2667 -36.36,7.2133 -36.3334,11.2 0.04,4 36.5067,-2.24 38.9867,4.3867 2.4667,6.64 -35.08,2.7066 -36.5867,5.6666 -1.4933,2.96 34.8267,8.3734 31.12,14.5334 -2.0266,3.3466 -32.1866,-5.5867 -32.04,-1.0267 0.1334,4.56 22.1467,14.9467 19.4534,18.5867 -2.7067,3.6266 -17.28,-11.16 -30.0534,-11.3467 -12.7733,-0.1733 -21.9066,-6.84 -42.2933,-1.2533 -10.0667,2.76 -86.92,12.16 -151.8667,17.7066 -66.5733,5.6934 -121.1333,7.4934 -121.1333,7.4934 l -4.88,-51.0934"
         style="fill:#ffb3c5;fill-opacity:1;fill-rule:nonzero;stroke:none;stroke-width:0.133333" /><path
         id="path239"
         d="m 1283.1939,4972.7263 c -1.6534,-20.1334 2.3066,-35.6267 3.2133,-42.3067 -6.0933,-20.9067 -19.04,-65.4933 -23.6933,-74.2667 0,0 21.8133,-41.9333 44.16,-41.64 0,0 22.8133,51.4267 40.4533,60.6267 0.2533,-0.067 6.24,2.6667 8.8667,2.64 17.0266,-0.12 76.5466,-1.92 87.6533,-2.12 l -6.2533,84.4267 c -43.12,84.5333 -31.44,128.8933 -15.04,145.3066 7.72,7.7067 -107.6134,39.04 -112.92,28.1067 -6.2667,-12.8933 -23.08,-120.0933 -26.44,-160.7733"
         style="fill:#f2f2f2;fill-opacity:1;fill-rule:nonzero;stroke:none;stroke-width:0.133333" /><path
         id="path240"
         d="m 1413.6072,4878.8463 c 10.9733,-5.24 90.4133,-2.6134 90.4133,-2.6134 0,0 11.0934,55.32 2.1334,68.6134 0,0 -71.0267,10.5733 -69.0134,16.4 l -23.5333,-82.4"
         style="fill:#f2f2f2;fill-opacity:1;fill-rule:nonzero;stroke:none;stroke-width:0.133333" /><path
         id="path241"
         d="m 1392.7805,4843.2996 c 0,0 -1.3866,30.1733 0.027,42.7333 1.4133,12.5734 -12.8933,42.0267 -39.5333,42.5467 -26.6267,0.5067 -3.9067,-28.2667 -1.5734,-40.64 2.3334,-12.36 5.1334,-60.7733 5.1334,-60.7733 l 35.9466,16.1333"
         style="fill:#ffb3c5;fill-opacity:1;fill-rule:nonzero;stroke:none;stroke-width:0.133333" /><path
         id="path242"
         d="m 1356.8339,4827.1663 c 0,0 -0.6534,11.24 -1.5867,24.2666 8.4,10.0267 21.3067,15.1467 37,9.04 0.1733,-9.3333 0.5333,-17.1733 0.5333,-17.1733 l -35.9466,-16.1333"
         style="fill:#ea94ad;fill-opacity:1;fill-rule:nonzero;stroke:none;stroke-width:0.133333" /><path
         id="path243"
         d="m 1394.9939,4753.4063 c 0,0 15.0666,4.5066 23.5333,19.5866 8.4667,15.0934 12.0267,58.0267 -20.4933,75.72 -32.52,17.6934 -54.8134,-12.04 -53.32,-39.44 1.48,-27.3866 9.8533,-63.5066 50.28,-55.8666"
         style="fill:#ffb3c5;fill-opacity:1;fill-rule:nonzero;stroke:none;stroke-width:0.133333" /><path
         id="path244"
         d="m 1338.1672,4800.2196 c 2.2,6.7867 7.2,11.2533 11.1467,9.9733 3.96,-1.28 5.3733,-7.8266 3.1733,-14.6133 -2.2,-6.7867 -7.2,-11.2533 -11.1467,-9.9733 -3.96,1.2933 -5.3733,7.8266 -3.1733,14.6133"
         style="fill:#ffb3c5;fill-opacity:1;fill-rule:nonzero;stroke:none;stroke-width:0.133333" /><path
         id="path245"
         d="m 1390.4472,4752.1929 c 0,0 16.52,45.1467 33.4,50.24 16.8933,5.0934 15.12,27.12 15.12,27.12 0,0 3.1333,-50.9333 -12.1467,-63.7066 -15.28,-12.7867 -36.3733,-13.6534 -36.3733,-13.6534"
         style="fill:#472a6a;fill-opacity:1;fill-rule:nonzero;stroke:none;stroke-width:0.133333" /><path
         id="path246"
         d="m 1416.4072,4811.0729 c -2.7467,6.9467 -1.16,14.1067 3.5467,15.96 4.6933,1.8534 10.7333,-2.28 13.48,-9.24 2.7466,-6.96 1.1733,-14.1066 -3.5334,-15.96 -4.7066,-1.8533 -10.7466,2.28 -13.4933,9.24"
         style="fill:#ffb3c5;fill-opacity:1;fill-rule:nonzero;stroke:none;stroke-width:0.133333" /><path
         id="path247"
         d="m 1212.4472,4579.4729 c 0,0 36.72,1.6 41.0267,1.6 4.32,0 16.8666,-12.9733 16.8666,-12.9733 l -57.8933,11.3733"
         style="fill:#ea94ad;fill-opacity:1;fill-rule:nonzero;stroke:none;stroke-width:0.133333" /><path
         id="path248"
         d="m 1332.6205,4356.6196 c 45.2267,64.44 29.6534,153.3467 -34.7866,198.5733 -64.44,45.2267 -153.3467,29.6534 -198.5734,-34.7866 -45.2266,-64.4534 -29.6533,-153.36 34.7867,-198.5867 64.44,-45.2267 153.3467,-29.64 198.5733,34.8"
         style="fill:#f2f2f2;fill-opacity:1;fill-rule:nonzero;stroke:none;stroke-width:0.133333" /><path
         id="path249"
         d="m 1313.8605,4369.7929 c 37.9467,54.08 24.88,128.68 -29.2,166.6267 -54.08,37.96 -128.68,24.88 -166.6266,-29.2 -37.96,-54.0667 -24.8934,-128.68 29.1866,-166.6267 54.08,-37.9466 128.68,-24.88 166.64,29.2"
         style="fill:#31dae7;fill-opacity:1;fill-rule:nonzero;stroke:none;stroke-width:0.133333" /><path
         id="path250"
         d="m 1229.7539,4522.6463 -5.2134,-19.2667 c -8.8133,1.96 -17.8133,2.6267 -25.4666,2.24 -6.4,-0.3333 -11.44,-5.5867 -11.5334,-11.9867 v -0.7733 c -0.093,-7.0533 5.8267,-12.7467 12.8667,-12.2933 7.1867,0.4666 15.0933,-0.013 23.04,-2.16 11.56,-3.12 18.28,-9.7334 16.08,-17.8534 -2.08,-7.7066 -9.8933,-10.8133 -26.28,-11.8266 -23.6933,-1.44 -41.2533,-7.5734 -46.5733,-27.2534 -4.8267,-17.8666 3.96,-35.2666 24.52,-45.4 l -5.2134,-19.28 19.8934,-5.3733 4.8266,17.8533 c 7.4667,-1.6666 13.8,-2.32 19.24,-2.3333 6.64,-0.027 12.0534,5.3467 12.1334,12 v 0 c 0.093,6.8667 -5.5334,12.4667 -12.4,12.3067 -5.1467,-0.12 -11.3467,0.36 -18.5067,2.2933 -13.1867,3.56 -15.92,10.4 -14.3867,16.08 1.8134,6.6933 10.0667,9.04 29.08,10.8667 26.4534,1.9866 39.2134,10.52 44.1467,28.7866 4.88,18.0534 -3.7333,36.9334 -25.9733,47.3067 l 5.6,20.6933 -19.88,5.3734"
         style="fill:#f2f2f2;fill-opacity:1;fill-rule:nonzero;stroke:none;stroke-width:0.133333" /><path
         id="path251"
         d="m 1253.4739,4581.0729 15.16,-13.6266 c 0,0 -7.16,-8.5467 -4.1867,-10.1867 4.84,-2.68 13.12,7.6533 12.3867,10.16 -0.7467,2.52 -9.64,10.6133 -9.64,10.6133 l -13.72,3.04"
         style="fill:#ffb3c5;fill-opacity:1;fill-rule:nonzero;stroke:none;stroke-width:0.133333" /></g></g></svg>
